<?xml version="1.0" encoding="UTF-8" standalone="no"?>
<svg
   xmlns:dc="http://purl.org/dc/elements/1.1/"
   xmlns:cc="http://creativecommons.org/ns#"
   xmlns:rdf="http://www.w3.org/1999/02/22-rdf-syntax-ns#"
   xmlns:svg="http://www.w3.org/2000/svg"
   xmlns="http://www.w3.org/2000/svg"
   xmlns:sodipodi="http://sodipodi.sourceforge.net/DTD/sodipodi-0.dtd"
   xmlns:inkscape="http://www.inkscape.org/namespaces/inkscape"
   inkscape:version="1.0 (4035a4fb49, 2020-05-01)"
   height="100px"
   width="100px"
   sodipodi:docname="home.svg"
   version="1.1"
   data-name="Layer 1"
   id="a01bbba8-bc2d-4e66-a086-829e28c11719">
  <metadata
     id="metadata182">
    <rdf:RDF>
      <cc:Work
         rdf:about="">
        <dc:format>image/svg+xml</dc:format>
        <dc:type
           rdf:resource="http://purl.org/dc/dcmitype/StillImage" />
      </cc:Work>
    </rdf:RDF>
  </metadata>
  <defs
     id="defs180" />
  <sodipodi:namedview
     inkscape:current-layer="a01bbba8-bc2d-4e66-a086-829e28c11719"
     inkscape:window-maximized="1"
     inkscape:window-y="-8"
     inkscape:window-x="-8"
     inkscape:cy="-70.895965"
     inkscape:cx="-291.47042"
     inkscape:zoom="0.25"
     showgrid="false"
     id="namedview178"
     inkscape:window-height="745"
     inkscape:window-width="1366"
     inkscape:pageshadow="2"
     inkscape:pageopacity="0"
     guidetolerance="10"
     gridtolerance="10"
     objecttolerance="10"
     borderopacity="1"
     bordercolor="#666666"
     pagecolor="#ffffff" />
  <title
     id="title97">home_cinema</title>
  <path
     id="path99"
     fill="#e6e6e6"
     d="M 668.76946,182.587 V 144 h -6 v 38.587 a 8,8 0 1 0 6,0 z" />
  <path
     id="path101"
     fill="#e6e6e6"
     d="m 682.76946,572 h -41 V 74 h -16 V 572 H 584.7694 a 36.99993,36.99993 0 0 0 -36.99994,36.99994 V 609 h 172 v -6e-5 a 36.99994,36.99994 0 0 0 -37,-36.99994 z" />
  <path
     id="path103"
     fill="#6c63ff"
     d="m 547.85247,148 h 171.834 L 709.17864,16.65967 A 18.19786,18.19786 0 0 0 691.13273,0 H 576.40618 a 18.19786,18.19786 0 0 0 -18.0459,16.65967 z" />
  <path
     id="path105"
     fill="#3f3d56"
     d="M 61.09765,457.53561 H 585.57636 V 403.98935 C 585.57636,259.3906 467.93576,141.75 323.33701,141.75 178.73826,141.75 61.09765,259.3906 61.09765,403.98935 Z" />
  <path
     id="path107"
     opacity="0.2"
     d="M 61.09765,457.53561 H 585.57636 V 403.98935 C 585.57636,259.3906 467.93576,141.75 323.33701,141.75 178.73826,141.75 61.09765,259.3906 61.09765,403.98935 Z" />
  <path
     id="path109"
     fill="#6c63ff"
     d="M 129.07227,476.07085 H 532.70453 A 81.09742,81.09742 0 0 0 451.71073,396.438 H 210.06608 a 81.09742,81.09742 0 0 0 -80.99381,79.63285 z" />
  <circle
     id="circle111"
     fill="#3f3d56"
     r="81.005867"
     cy="386.82709"
     cx="81.005867" />
  <circle
     id="circle113"
     fill="#3f3d56"
     r="81.005867"
     cy="386.82709"
     cx="572.53302" />
  <path
     id="path115"
     fill="#3f3d56"
     d="M 511.43539,428.01652 V 458.2221 H 137.29809 V 428.01652 H 53.54626 V 575.239 a 34.011,34.011 0 0 0 34.011,34.011 h 473.61886 a 34.011,34.011 0 0 0 34.01111,-34.011 V 428.01652 Z" />
  <circle
     id="circle117"
     opacity="0.2"
     r="16.475771"
     cy="386.82709"
     cx="81.005867" />
  <circle
     id="circle119"
     opacity="0.2"
     r="16.475771"
     cy="386.82709"
     cx="572.53302" />
  <path
     id="path121"
     fill="#ffb8b8"
     d="m 353.17791,132.49648 c 0,0 1.61972,30.77465 12.95775,37.25352 11.33803,6.47887 0,50.21127 0,50.21127 l -53.45071,1.61973 -3.23944,-51.831 c 0,0 6.47888,-21.05634 3.23944,-30.77465 -3.23944,-9.71831 40.49296,-6.47887 40.49296,-6.47887 z" />
  <polygon
     id="polygon123"
     fill="#ffb8b8"
     points="424.446,611.933 440.643,579.539 413.107,560.102 393.671,582.778 " />
  <polygon
     id="polygon125"
     fill="#ffb8b8"
     points="264.093,611.933 247.896,579.539 275.431,560.102 294.868,582.778 " />
  <path
     id="path127"
     fill="#2f2e41"
     d="m 402.57932,345.48944 c 0,0 116.61972,38.87324 110.14084,76.12676 -6.47888,37.25352 -56.69014,168.4507 -56.69014,168.4507 0,0 -27.53521,0 -48.59155,-29.15493 l 14.57747,-32.39436 c 0,0 -6.47888,-17.81691 4.85915,-21.05634 11.33803,-3.23943 17.8169,-59.92958 17.8169,-59.92958 0,0 -82.60563,-6.47887 -100.42253,-37.25352 l -32.39437,-77.74648 z" />
  <path
     id="path129"
     fill="#2f2e41"
     d="m 285.9596,345.48944 c 0,0 -116.61972,38.87324 -110.14087,76.12676 6.47885,37.25352 56.69014,168.4507 56.69014,168.4507 0,0 27.53522,0 48.59155,-29.15493 l -14.57746,-32.39436 c 0,0 6.47887,-17.81691 -4.85916,-21.05634 -11.33803,-3.23943 -17.8169,-59.92958 -17.8169,-59.92958 0,0 82.60564,-6.47887 100.42254,-37.25352 l 32.39436,-77.74648 z" />
  <path
     id="path131"
     fill="#2f2e41"
     d="m 418.7765,599.78521 c 0,0 16.19718,-14.57746 17.8169,-3.23944 1.61972,11.33802 -1.61972,56.69015 -1.61972,56.69015 0,0 16.19719,34.01408 -8.09859,34.01408 -24.29578,0 -35.6338,-25.91549 -32.39436,-51.831 3.23944,-25.91551 -11.338,-35.6338 -11.338,-35.6338 0,0 -17.8169,-35.6338 0,-38.87324 17.8169,-3.23944 24.29577,4.85916 24.29577,4.85916 0,0 -6.4789,29.15494 11.338,34.01409 z" />
  <path
     id="path133"
     fill="#2f2e41"
     d="m 269.76242,599.78521 c 0,0 -16.19719,-14.57746 -17.81691,-3.23944 -1.61972,11.33802 1.61972,56.69015 1.61972,56.69015 0,0 -16.19718,34.01408 8.09859,34.01408 24.29577,0 35.63381,-25.91549 32.39437,-51.831 -3.23944,-25.91551 11.338,-35.6338 11.338,-35.6338 0,0 17.8169,-35.6338 0,-38.87324 -17.8169,-3.23944 -24.29578,4.85916 -24.29578,4.85916 0,0 6.47891,29.15494 -11.33799,34.01409 z" />
  <circle
     id="circle135"
     fill="#ffb8b8"
     r="37.253521"
     cy="113.86972"
     cx="328.07227" />
  <path
     id="path137"
     fill="#e6e6e6"
     d="m 333.74129,177.84859 -22.67606,-17.8169 -55.07042,25.91549 -1.61972,147.39437 c 0,0 -34.01408,16.19718 -24.29577,37.25352 0,0 29.15493,6.47887 42.11267,19.43662 12.95774,12.95775 85.84507,-4.85915 116.61972,-14.57746 30.77465,-9.71831 38.87324,-21.05634 38.87324,-21.05634 l -30.77465,-43.7324 17.8169,-111.76056 -55.06427,-37.02106 z" />
  <path
     id="path139"
     fill="#2f2e41"
     d="m 373.36314,88.51412 a 32.72327,32.72327 0 0 1 -2.22094,-3.4469 c -1.15512,-2.81332 0.66946,-6.12871 -1.03543,-8.75574 -1.7404,-2.68175 -6.15869,-3.24731 -9.16482,-5.06919 -4.63088,-2.80657 -5.47263,-8.31373 -9.81145,-11.40651 -3.12615,-2.22838 -7.58418,-2.82906 -11.76168,-2.70194 -4.1775,0.12712 -8.29915,0.88239 -12.47838,0.96527 A 37.62165,37.62165 0 0 1 310.51334,54.75 l 3.08305,6.03082 a 30.7761,30.7761 0 0 1 -9.678,-3.92278 c -1.3636,1.69136 1.1312,4.25855 -0.41564,5.845 a 4.96343,4.96343 0 0 1 -2.18434,1.01281 52.24553,52.24553 0 0 0 -16.53785,8.06827 8.31019,8.31019 0 0 0 -2.78289,2.93788 c -0.8036,1.7809 -0.0911,3.74785 -0.15191,5.64139 -0.11054,3.44069 -2.73736,6.441 -4.60127,9.54054 -1.86391,3.09954 -2.87034,7.118 -0.10591,9.74867 a 25.13472,25.13472 0 0 1 1.9317,1.70333 c 2.76984,3.26725 -2.1332,8.052 0.23,11.51909 1.02607,1.50533 3.1292,2.26716 4.95713,3.15648 a 19.80713,19.80713 0 0 1 8.4742,7.55282 L 291.31086,113.156 a 1.72023,1.72023 0 0 1 0.2829,-1.519 c 0.68812,-0.70137 2.12943,-0.42179 3.07917,-0.88624 1.04507,-0.51108 1.124,-1.68341 1.08247,-2.66528 l -0.31984,-7.57123 c -0.14382,-3.40457 -0.1836,-3.85668 2.32377,-6.60478 1.75174,-1.91993 4.50741,-3.07833 7.27533,-3.93024 6.3253,-1.94679 13.12847,-2.62018 19.85287,-3.27824 7.809,-0.7642 16.60205,-4.55325 22.66652,-0.53025 4.96433,3.2932 6.61488,8.70626 9.00682,13.507 2.15,4.315 7.668,17.02 12.26163,10.1427 2.88484,-4.319 7.29723,-16.49744 4.54064,-21.30632 z" />
  <path
     id="path141"
     fill="#3f3d56"
     d="m 334.46773,103.063 a 0.57962,0.57962 0 0 0 -0.5791,0.57861 v 15.59717 a 0.57962,0.57962 0 0 0 0.5791,0.57861 h 26.84961 a 0.57962,0.57962 0 0 0 0.5791,-0.57861 V 103.6416 a 0.57962,0.57962 0 0 0 -0.5791,-0.57861 z" />
  <path
     id="path143"
     fill="#ff6584"
     d="m 337.46819,104.43848 a 1.07985,1.07985 0 0 0 -1.07861,1.07861 v 11.84619 a 1.07985,1.07985 0 0 0 1.07861,1.07861 h 20.84863 a 1.07985,1.07985 0 0 0 1.07861,-1.07861 v -11.84619 a 1.07985,1.07985 0 0 0 -1.07861,-1.07861 z" />
  <rect
     id="rect145"
     fill="#3f3d56"
     height="3.23944"
     width="13.98592"
     y="108.2007"
     x="320.78354" />
  <path
     id="path147"
     fill="#3f3d56"
     d="m 296.44673,103.063 a 0.57952,0.57952 0 0 0 -0.57861,0.57861 v 15.59717 a 0.57952,0.57952 0 0 0 0.57861,0.57861 h 26.8501 a 0.57953,0.57953 0 0 0 0.57862,-0.57861 V 103.6416 a 0.57953,0.57953 0 0 0 -0.57862,-0.57861 z" />
  <path
     id="path149"
     fill="#6c63ff"
     d="m 299.44773,104.43848 a 1.08,1.08 0 0 0 -1.0791,1.07861 v 11.84619 a 1.08,1.08 0 0 0 1.0791,1.07861 h 20.8481 a 1.08,1.08 0 0 0 1.0791,-1.07861 v -11.84619 a 1.08,1.08 0 0 0 -1.0791,-1.07861 z" />
  <path
     id="path151"
     fill="#3f3d56"
     d="m 281.76944,297.75 h 93 a 14,14 0 0 1 14,14 v 0 h -121 v 0 a 14,14 0 0 1 14,-14 z" />
  <path
     id="path153"
     fill="#f9a825"
     d="m 381.26946,296.75 a 4.96123,4.96123 0 0 0 -1.59918,0.27228 2.99462,2.99462 0 0 0 -5.90082,0.72772 c 0,0.0149 0.004,0.0288 0.004,0.0437 a 5.14183,5.14183 0 0 0 -1.10321,0.22858 3.01113,3.01113 0 0 0 -1.483,-1.911 5.017,5.017 0 0 0 2.16407,-2.36859 4.02054,4.02054 0 1 0 -0.0819,-7.99268 4.96123,4.96123 0 0 0 -1.59918,0.27228 2.99013,2.99013 0 1 0 -5.749,1.62506 c -0.11956,0.0832 -0.23108,0.17663 -0.34283,0.26959 a 2.83951,2.83951 0 0 0 -2.04492,-0.68066 4.98044,4.98044 0 0 0 -9.68311,1.55066 5.11773,5.11773 0 0 0 -1.18017,0.23535 2.9999,2.9999 0 0 0 -0.17249,-0.49353 3.75781,3.75781 0 0 0 1.27167,-2.77875 4.27213,4.27213 0 0 0 -4.5,-4 4.96123,4.96123 0 0 0 -1.59918,0.27228 2.99013,2.99013 0 1 0 -5.749,1.62506 4.98706,4.98706 0 0 0 -2.13726,3.8692 c -0.0423,0.0376 -0.0908,0.068 -0.13086,0.10791 a 3.56328,3.56328 0 0 0 0.11627,-0.87445 4.27213,4.27213 0 0 0 -4.5,-4 4.96123,4.96123 0 0 0 -1.59918,0.27228 2.99013,2.99013 0 1 0 -5.749,1.62506 4.98694,4.98694 0 0 0 0,8.20532 2.72729,2.72729 0 0 0 0,1.79468 5.04888,5.04888 0 0 0 -1.27935,1.29181 2.98133,2.98133 0 0 0 -5.84162,0.50488 4.764,4.764 0 0 0 -1.28564,-0.51941 5.02681,5.02681 0 0 0 1.83661,-2.18194 4.02054,4.02054 0 1 0 -0.0819,-7.99268 4.96123,4.96123 0 0 0 -1.59918,0.27228 2.99013,2.99013 0 1 0 -5.749,1.62506 c -0.0641,0.0446 -0.12194,0.0971 -0.1839,0.14459 -0.156,-0.0145 -0.30767,-0.0419 -0.46795,-0.0419 a 4.96123,4.96123 0 0 0 -1.59918,0.27228 c -0.0189,-0.0754 -0.05,-0.14545 -0.0745,-0.21851 a 2.94689,2.94689 0 0 0 -3.06225,-3.5675 4.9952,4.9952 0 1 0 -7.85071,5.56543 5.17336,5.17336 0 0 0 -1.01257,0.22058 2.973,2.973 0 0 0 -4.76184,-1.6084 4.67579,4.67579 0 0 0 -3.639,-1.66388 4.96123,4.96123 0 0 0 -1.59918,0.27228 2.99013,2.99013 0 1 0 -5.749,1.62506 4.98907,4.98907 0 0 0 -2.15185,4.10266 c 0,0.0155 0.004,0.0297 0.005,0.0452 a 4.14774,4.14774 0 0 0 -2.10376,0.22711 2.99013,2.99013 0 1 0 -5.749,1.62506 4.97953,4.97953 0 0 0 3.93555,8.96979 4.98218,4.98218 0 0 0 9.414,1.27893 31.17007,31.17007 0 0 0 10.80249,-0.48676 4.9821,4.9821 0 0 0 9.278,0.33338 4.89172,4.89172 0 0 0 2.09741,-0.519 4.97708,4.97708 0 0 0 8.90259,-0.481 4.84375,4.84375 0 0 1 5.41815,3.00732 7.79929,7.79929 0 0 1 5.74383,-3.17871 4.87476,4.87476 0 0 0 5.41455,-2.06775 4.99772,4.99772 0 0 0 9.42347,3.23914 4.89172,4.89172 0 0 0 2.09741,-0.519 4.97708,4.97708 0 0 0 8.90259,-0.481 4.89172,4.89172 0 0 0 2.09741,-0.519 4.94793,4.94793 0 0 0 7.41247,1.43671 4.97874,4.97874 0 0 0 8.90613,2.06525 4.96583,4.96583 0 0 0 7.584,-1.983 4.02054,4.02054 0 1 0 -0.0819,-7.99268 z m -89.37818,-2.06384 c -0.005,0.0241 -0.009,0.0488 -0.0138,0.0731 -0.0365,-10e-4 -0.0711,-0.009 -0.108,-0.009 a 2.9781,2.9781 0 0 0 -0.44556,0.0449 c 0.008,-0.018 0.0195,-0.0341 0.0274,-0.0522 a 4.9796,4.9796 0 0 0 0.54,-0.0565 z m 41.779,-1.66388 c -0.0146,-0.0582 -0.0395,-0.11176 -0.0574,-0.16858 a 5.0243,5.0243 0 0 0 1.73847,-2.111 4.68136,4.68136 0 0 0 3.4768,-1.57435 3.00916,3.00916 0 0 0 -0.0587,0.58167 2.96721,2.96721 0 0 0 0.15185,0.89734 5.01837,5.01837 0 0 0 -1.85888,2.437 4.90717,4.90717 0 0 0 -3.39215,-0.062 z m 29.95037,0.37286 c -0.002,-0.0613 0.006,-0.12445 0.002,-0.1853 a 2.98582,2.98582 0 0 0 0.38111,-0.0259 4.95614,4.95614 0 0 0 0.95263,1.76471 c -0.0944,0.0265 -0.19378,0.0424 -0.2857,0.0736 a 3.01575,3.01575 0 0 0 -1.04963,-1.62714 z" />
  <path
     id="path155"
     fill="#3f3d56"
     d="m 277.84273,302.75 a 10.441,10.441 0 0 0 -10.42676,11.002 l 6.77149,93.11524 a 10.44058,10.44058 0 0 0 10.42675,9.88281 h 87.31052 a 10.44058,10.44058 0 0 0 10.42676,-9.88281 L 389.12297,313.752 A 10.441,10.441 0 0 0 378.69622,302.75 Z" />
  <rect
     id="rect157"
     fill="#6c63ff"
     height="114"
     width="6"
     y="302.75"
     x="282.76947" />
  <rect
     id="rect159"
     fill="#6c63ff"
     height="114"
     width="6"
     y="302.75"
     x="299.76947" />
  <rect
     id="rect161"
     fill="#6c63ff"
     height="114"
     width="6"
     y="302.75"
     x="316.76947" />
  <rect
     id="rect163"
     fill="#6c63ff"
     height="114"
     width="6"
     y="302.75"
     x="333.76947" />
  <rect
     id="rect165"
     fill="#6c63ff"
     height="114"
     width="6"
     y="302.75"
     x="350.76947" />
  <rect
     id="rect167"
     fill="#6c63ff"
     height="114"
     width="6"
     y="302.75"
     x="367.76947" />
  <path
     id="path169"
     fill="#ffb8b8"
     d="m 367.75537,359.257 -19.43662,11.338 c 0,0 -46.97183,38.87324 -14.57746,45.35211 32.39437,6.47887 40.493,-27.53521 40.493,-27.53521 l 11.338,-12.95774 z" />
  <path
     id="path171"
     fill="#ffb8b8"
     d="m 275.43143,351.15845 19.43662,11.338 c 0,0 46.97183,38.87324 14.57746,45.35211 -32.39437,6.47887 -40.493,-27.53521 -40.493,-27.53521 l -11.338,-12.95775 z" />
  <path
     id="path173"
     fill="#e6e6e6"
     d="m 393.67087,197.28521 21.05633,1.61972 c 0,0 16.19719,14.57746 14.57747,34.01408 0,0 14.57746,42.11268 11.338,59.92958 0,0 3.23943,29.15493 -1.61972,40.493 -4.85915,11.33807 -45.35208,55.07041 -45.35208,55.07041 0,0 -37.25352,-29.15493 -35.63381,-30.77465 l 48.59155,-48.59155 -24.29577,-32.39436 z" />
  <path
     id="path175"
     fill="#e6e6e6"
     d="m 255.99481,185.94718 -0.80986,0.80986 c 0,0 -36.44366,15.38733 -34.82394,34.82395 0,0 -14.57747,42.11267 -11.338,59.92957 0,0 -3.23944,29.15493 1.61972,40.493 4.85916,11.33807 45.35211,55.07042 45.35211,55.07042 0,0 37.25352,-29.15493 35.6338,-30.77464 l -48.59155,-48.59155 24.29578,-32.39437 z" />
</svg>
