<?xml version="1.0" encoding="UTF-8" standalone="no"?>
<svg
   xmlns:dc="http://purl.org/dc/elements/1.1/"
   xmlns:cc="http://creativecommons.org/ns#"
   xmlns:rdf="http://www.w3.org/1999/02/22-rdf-syntax-ns#"
   xmlns:svg="http://www.w3.org/2000/svg"
   xmlns="http://www.w3.org/2000/svg"
   xmlns:sodipodi="http://sodipodi.sourceforge.net/DTD/sodipodi-0.dtd"
   xmlns:inkscape="http://www.inkscape.org/namespaces/inkscape"
   sodipodi:docname="time-table.svg"
   inkscape:version="1.0 (4035a4fb49, 2020-05-01)"
   id="svg8"
   version="1.1"
   viewBox="0 0 200.28549 210.34639"
   height="210.34639mm"
   width="200.28549mm">
  <defs
     id="defs2">
    <linearGradient
       id="3cf802be-0480-4c68-848a-073112220499"
       x1="635.21997"
       y1="545.34003"
       x2="635.21997"
       y2="43.419998"
       gradientUnits="userSpaceOnUse">
      <stop
         offset="0"
         stop-color="gray"
         stop-opacity="0.25"
         id="stop904" />
      <stop
         offset="0.54"
         stop-color="gray"
         stop-opacity="0.12"
         id="stop906" />
      <stop
         offset="1"
         stop-color="gray"
         stop-opacity="0.1"
         id="stop908" />
    </linearGradient>
  </defs>
  <sodipodi:namedview
     inkscape:window-maximized="1"
     inkscape:window-y="-8"
     inkscape:window-x="1358"
     inkscape:window-height="745"
     inkscape:window-width="1366"
     showgrid="false"
     inkscape:document-rotation="0"
     inkscape:current-layer="g1458"
     inkscape:document-units="mm"
     inkscape:cy="300.8704"
     inkscape:cx="650.0142"
     inkscape:zoom="0.7"
     inkscape:pageshadow="2"
     inkscape:pageopacity="0.0"
     borderopacity="1.0"
     bordercolor="#666666"
     pagecolor="#ffffff"
     id="base" />
  <metadata
     id="metadata5">
    <rdf:RDF>
      <cc:Work
         rdf:about="">
        <dc:format>image/svg+xml</dc:format>
        <dc:type
           rdf:resource="http://purl.org/dc/dcmitype/StillImage" />
        <dc:title></dc:title>
      </cc:Work>
    </rdf:RDF>
  </metadata>
  <g
     transform="translate(-117.25623,-13.490472)"
     id="layer1"
     inkscape:groupmode="layer"
     inkscape:label="Layer 1">
    <g
       transform="matrix(0.26458333,0,0,0.26458333,-129.70427,71.730433)"
       id="g311">
      <g
         transform="translate(933.39402,-238.27954)"
         id="g1458">
        <polygon
           points="396.32,482.04 168.55,402.86 188.67,398.08 554.92,457.83 534.75,594.32 505.92,669.33 435.45,690.5 93.17,688.83 59.16,609.06 179.42,600.33 158.46,512.87 "
           fill="#6c63ff"
           id="polygon917" />
        <path
           d="m 187,698.84 c 0,0 21,-3.36 33.6,11.48 0,0 -9.24,7.28 -29.12,-2.8 z"
           transform="translate(-88.58,-43.42)"
           fill="#6c63ff"
           id="path919" />
        <path
           d="m 184.8,698.51 c 0,0 -13.4,16.49 -6.8,34.85 0,0 10.92,-4.37 12.11,-26.63 z"
           transform="translate(-88.58,-43.42)"
           fill="#6c63ff"
           id="path921" />
        <path
           d="m 172.76,671.4 c 0,0 8.4,-15.41 42,6.16 0,0 -4.48,10.36 -19.32,9.52 -14.84,-0.84 -18.76,-7.56 -22.68,-15.68 z"
           transform="translate(-88.58,-43.42)"
           fill="#6c63ff"
           id="path923" />
        <path
           d="m 170.59,670.29 c 0,0 -17.43,-2 -19.12,37.9 0,0 11.05,2.29 18.9,-10.33 7.85,-12.62 4.63,-19.7 0.22,-27.57 z"
           transform="translate(-88.58,-43.42)"
           fill="#6c63ff"
           id="path925" />
        <path
           d="m 160.44,638.46 c 0,0 9.8,-27.16 45.36,-7.84 0,0 -8.12,24.92 -41.72,17.08 z"
           transform="translate(-88.58,-43.42)"
           fill="#6c63ff"
           id="path927" />
        <path
           d="m 149.52,597.86 c 0,0 18.48,-27.44 51.24,-2 0,0 -11.48,25.76 -48.44,11.76 z"
           transform="translate(-88.58,-43.42)"
           fill="#6c63ff"
           id="path929" />
        <path
           d="m 145.6,559.22 c 0,0 21.56,-25.21 54,0 0,0 -20.44,22.12 -54,6.44 z"
           transform="translate(-88.58,-43.42)"
           fill="#6c63ff"
           id="path931" />
        <path
           d="m 142.24,521.69 c 0,0 21.84,-26.32 52.92,-1.4 0,0 -24.64,23.24 -52.92,7.56 z"
           transform="translate(-88.58,-43.42)"
           fill="#6c63ff"
           id="path933" />
        <path
           d="m 144.2,488.37 c 0,0 23,-33.88 52.08,-10.92 0,0 -24.64,29.12 -52.08,17.36 z"
           transform="translate(-88.58,-43.42)"
           fill="#6c63ff"
           id="path935" />
        <path
           d="m 149.52,449.45 c 0,0 24.36,-33.6 52.64,-7.84 0,0 -28.84,29.12 -52.64,14 z"
           transform="translate(-88.58,-43.42)"
           fill="#6c63ff"
           id="path937" />
        <path
           d="m 157.64,414.66 c 0,0 28.84,-31.58 54,-19 0,0 -30.05,33.54 -55.26,27.38 z"
           transform="translate(-88.58,-43.42)"
           fill="#6c63ff"
           id="path939" />
        <path
           d="m 167.72,381.68 c 0,0 33.28,-38.68 52.64,-25.76 0,0 -24.52,30 -55,33 z"
           transform="translate(-88.58,-43.42)"
           fill="#6c63ff"
           id="path941" />
        <path
           d="m 182.27,343.43 c 0,0 29.13,-31.58 50.41,-23.74 0,0 -24.92,32.76 -54.32,33.6 z"
           transform="translate(-88.58,-43.42)"
           fill="#6c63ff"
           id="path943" />
        <path
           d="m 195.44,307.65 c 0,0 32.2,-30.24 46.2,-24.92 0,0 -23.24,33.6 -47.6,31.64 z"
           transform="translate(-88.58,-43.42)"
           fill="#6c63ff"
           id="path945" />
        <path
           d="m 208.32,274.61 c 0,0 27.72,-36.13 42.85,-33.33 0,0 -16.81,32.21 -42.85,37 z"
           transform="translate(-88.58,-43.42)"
           fill="#6c63ff"
           id="path947" />
        <path
           d="m 222.3,230.06 c 0,0 24.5,-27.69 37.74,-27.63 0,0 -19.34,37 -38.75,36.66 z"
           transform="translate(-88.58,-43.42)"
           fill="#6c63ff"
           id="path949" />
        <path
           d="m 230.58,200.4 23.67,-57.68 c 0,0 1.18,52.14 -26.68,68.38 z"
           transform="translate(-88.58,-43.42)"
           fill="#6c63ff"
           id="path951" />
        <path
           d="m 240.19,136.79 c 0,0 3.92,-48.17 1.4,-52.09 0,0 16.92,40.05 -1.56,73.37 z"
           transform="translate(-88.58,-43.42)"
           fill="#6c63ff"
           id="path953" />
        <path
           d="m 159.52,637.82 c 0,0 -24.54,-15.21 -40.43,22 0,0 21.84,14.5 43.32,-12.51 z"
           transform="translate(-88.58,-43.42)"
           fill="#6c63ff"
           id="path955" />
        <path
           d="m 148.73,596.31 c 0,0 -30.1,-13.73 -44.7,25.12 0,0 23.25,16 47.44,-15.3 z"
           transform="translate(-88.58,-43.42)"
           fill="#6c63ff"
           id="path957" />
        <path
           d="m 144.2,561.53 c 0,0 -21.56,-25.21 -54,0 0,0 20.44,22.12 54,6.44 z"
           transform="translate(-88.58,-43.42)"
           fill="#6c63ff"
           id="path959" />
        <path
           d="m 141.5,521.69 c 0,0 -21.84,-26.32 -52.92,-1.4 0,0 24.64,23.24 52.92,7.56 z"
           transform="translate(-88.58,-43.42)"
           fill="#6c63ff"
           id="path961" />
        <path
           d="m 144.2,489.33 c 0,0 -15.32,-37.95 -48.62,-21.63 0,0 18,33.65 47.26,27.93 z"
           transform="translate(-88.58,-43.42)"
           fill="#6c63ff"
           id="path963" />
        <path
           d="m 151.45,449.26 c 0,0 -15.23,-38.61 -49,-20.71 0,0 20.68,35.39 47.5,26.67 z"
           transform="translate(-88.58,-43.42)"
           fill="#6c63ff"
           id="path965" />
        <path
           d="m 160.89,414.85 c 0,0 -6,-42.33 -34,-46.12 0,0 5.94,44.64 30.23,53.75 z"
           transform="translate(-88.58,-43.42)"
           fill="#6c63ff"
           id="path967" />
        <path
           d="m 168.43,381.76 c 0,0 -2.34,-51 -25.49,-52.78 0,0 0.78,38.71 22.88,60 z"
           transform="translate(-88.58,-43.42)"
           fill="#6c63ff"
           id="path969" />
        <path
           d="m 184.67,342 c 0,0 -6.9,-42.41 -29,-47.59 0,0 2.74,41.07 26.81,58 z"
           transform="translate(-88.58,-43.42)"
           fill="#6c63ff"
           id="path971" />
        <path
           d="m 198.06,308 c 0,0 -0.23,-44.18 -13.73,-50.67 0,0 -8.37,40 9.82,56.31 z"
           transform="translate(-88.58,-43.42)"
           fill="#6c63ff"
           id="path973" />
        <path
           d="m 209.35,274.11 c 0,0 -1.89,-45.49 -15.87,-51.9 0,0 -4.78,36 13.78,54.88 z"
           transform="translate(-88.58,-43.42)"
           fill="#6c63ff"
           id="path975" />
        <path
           d="m 224.25,233.69 c 0,0 -0.08,-37 -10.06,-45.68 0,0 -9.92,40.53 4.85,53.12 z"
           transform="translate(-88.58,-43.42)"
           fill="#6c63ff"
           id="path977" />
        <path
           d="M 229.41,198.58 219.7,137 c 0,0 -13.19,50.46 10.17,72.7 z"
           transform="translate(-88.58,-43.42)"
           fill="#6c63ff"
           id="path979" />
        <path
           d="m 231.3,137.37 c 0,0 -24.92,-41.4 -24.41,-46 0,0 2.65,43.39 34,65 z"
           transform="translate(-88.58,-43.42)"
           fill="#6c63ff"
           id="path981" />
        <path
           d="m 234.22,125.14 c 0,0 -23.52,-58.8 -34.16,-63.56 0,0 33.6,17.08 36.12,61.88 z"
           transform="translate(-88.58,-43.42)"
           fill="#6c63ff"
           id="path983" />
        <path
           d="m 221.17,239.44 -1.61,-0.49 c 19.85,-64.73 24.8,-106 13.95,-116.35 l 1.15,-1.22 c 11.51,10.92 6.84,51.74 -13.49,118.06 z"
           transform="translate(-88.58,-43.42)"
           fill="#444053"
           id="path985" />
        <path
           d="m 166.51,391 -2.38,-0.85 c 2.11,-5.93 4.38,-11.95 6.76,-17.88 20.72,-51.64 38.36,-99.68 49.67,-136.56 l 2.07,-1 c -11.33,36.95 -28.66,86.83 -49.4,138.54 -2.37,5.82 -4.63,11.81 -6.72,17.75 z"
           transform="translate(-88.58,-43.42)"
           fill="#444053"
           id="path987" />
        <path
           d="M 216.59,747.28 C 216.27,746.93 184.1,710.7 161.67,648.85 A 364.18,364.18 0 0 1 140,536.07 c -1.54,-48.13 8.56,-101.87 25.86,-150.69 l 1.88,2.2 c -38.84,109.57 -23.41,203.46 -2.94,260 22.19,61.29 54,97.12 54.31,97.48 z"
           transform="translate(-88.58,-43.42)"
           fill="#444053"
           id="path989" />
        <path
           d="m 719.31,670.36 c 0,0 -22.67,27.67 -4.67,69.5 l -181,78.5 -17.37,3.64 -8,-35 5.35,-44.17 v -24.14 z"
           transform="translate(-88.58,-43.42)"
           fill="#d5d6db"
           id="path991" />
        <polygon
           points="309.68,563.39 641.63,616.27 435.45,690.5 59.16,609.06 "
           fill="#6c63ff"
           id="polygon993" />
        <polygon
           points="309.68,563.39 641.63,616.27 435.45,690.5 59.16,609.06 "
           fill="#6c63ff"
           id="polygon995" />
        <path
           d="m 147.74,652.47 c 0,0 -23.43,44.39 3.57,85.39 l 371.5,80.5 c 0,0 -23.06,-35.36 1.19,-84.44 z"
           transform="translate(-88.58,-43.42)"
           fill="#6c63ff"
           id="path997" />
        <path
           d="m 147.74,652.47 c 0,0 -23.43,44.39 3.57,85.39 l 371.5,80.5 c 0,0 -23.06,-35.36 1.19,-84.44 z"
           transform="translate(-88.58,-43.42)"
           opacity="0.1"
           id="path999" />
        <path
           d="m 158.81,667.86 c 0,0 -13.39,32.48 0,53.5"
           transform="translate(-88.58,-43.42)"
           opacity="0.1"
           id="path1001" />
        <path
           d="m 522.81,818.36 207.4,-88.5 c 0,0 11.6,2.5 4.1,11 -7.5,8.5 -207.5,86 -207.5,86 l -375.5,-89 z"
           transform="translate(-88.58,-43.42)"
           fill="#6c63ff"
           id="path1003" />
        <path
           d="m 522.81,818.36 207.4,-88.5 c 0,0 11.6,2.5 4.1,11 -7.5,8.5 -207.5,86 -207.5,86 l -375.5,-89 z"
           transform="translate(-88.58,-43.42)"
           opacity="0.1"
           id="path1005" />
        <path
           d="m 505.81,742.86 c 0,0 -20,24 0,60"
           transform="translate(-88.58,-43.42)"
           opacity="0.1"
           id="path1007" />
        <rect
           x="510.67999"
           y="757.35999"
           width="94.57"
           height="1"
           transform="rotate(-18.45,380.09278,1008.9413)"
           opacity="0.1"
           id="rect1009" />
        <rect
           x="509.35001"
           y="759.85999"
           width="115.23"
           height="1"
           transform="rotate(-20.82,404.65285,979.85529)"
           opacity="0.1"
           id="rect1011" />
        <rect
           x="508.70001"
           y="764.60999"
           width="133.56"
           height="1"
           transform="rotate(-22.26,420.8002,968.48088)"
           opacity="0.1"
           id="rect1013" />
        <rect
           x="508.37"
           y="766.53003"
           width="153.74001"
           height="1"
           transform="rotate(-24.31,440.30017,951.07131)"
           opacity="0.1"
           id="rect1015" />
        <rect
           x="509.20999"
           y="768.64001"
           width="168.14999"
           height="1"
           transform="rotate(-23.61,445.15056,959.33506)"
           opacity="0.1"
           id="rect1017" />
        <rect
           x="510.32999"
           y="769.26001"
           width="201.22"
           height="1"
           transform="rotate(-23.36,461.65962,962.30683)"
           opacity="0.1"
           id="rect1019" />
        <polygon
           points="328.23,576.94 435.45,597.44 291.23,643.94 152.23,613.94 "
           fill="#ffffff"
           opacity="0.3"
           id="polygon1021" />
        <path
           d="m 730.21,659.69 c 0,0 9.1,3.67 3.76,9.34 C 728.63,674.7 524,733.92 524,733.92 Z"
           transform="translate(-88.58,-43.42)"
           fill="#6c63ff"
           id="path1023" />
        <path
           d="m 818.6,574.18 c 0,0 -22.66,27.66 -4.66,69.5 l -181,78.5 -17.37,3.66 -8,-35 5.43,-44.16 v -24.17 z"
           transform="translate(-88.58,-43.42)"
           fill="#d5d6db"
           id="path1025" />
        <polygon
           points="408.97,467.21 740.93,520.09 534.75,594.32 158.46,512.87 "
           fill="#3a3768"
           id="polygon1027" />
        <path
           d="m 247,556.29 c 0,0 -23.44,44.39 3.56,85.39 l 371.5,80.5 c 0,0 -23.05,-35.39 1.23,-84.45 z"
           transform="translate(-88.58,-43.42)"
           fill="#3a3768"
           id="path1029" />
        <path
           d="m 247,556.29 c 0,0 -23.44,44.39 3.56,85.39 l 371.5,80.5 c 0,0 -23.05,-35.39 1.23,-84.45 L 505.81,612.3 Z"
           transform="translate(-88.58,-43.42)"
           opacity="0.1"
           id="path1031" />
        <path
           d="m 258.1,571.68 c 0,0 -13.38,32.47 0,53.5"
           transform="translate(-88.58,-43.42)"
           opacity="0.1"
           id="path1033" />
        <path
           d="m 622.1,722.18 207.41,-88.5 c 0,0 11.59,2.5 4.09,11 -7.5,8.5 -207.5,86 -207.5,86 l -375.5,-89 z"
           transform="translate(-88.58,-43.42)"
           fill="#3a3768"
           id="path1035" />
        <path
           d="m 622.1,722.18 207.41,-88.5 c 0,0 11.59,2.5 4.09,11 -7.5,8.5 -207.5,86 -207.5,86 l -375.5,-89 z"
           transform="translate(-88.58,-43.42)"
           opacity="0.1"
           id="path1037" />
        <path
           d="m 605.1,646.68 c 0,0 -20,24 0,60"
           transform="translate(-88.58,-43.42)"
           opacity="0.1"
           id="path1039" />
        <rect
           x="609.96997"
           y="661.17999"
           width="94.57"
           height="1"
           transform="rotate(-18.45,479.4194,912.74277)"
           opacity="0.1"
           id="rect1041" />
        <rect
           x="608.65002"
           y="663.67999"
           width="115.23"
           height="1"
           transform="rotate(-20.82,503.97398,883.65018)"
           opacity="0.1"
           id="rect1043" />
        <rect
           x="608"
           y="668.42999"
           width="133.56"
           height="1"
           transform="rotate(-22.26,520.07775,872.30795)"
           opacity="0.1"
           id="rect1045" />
        <rect
           x="607.65997"
           y="670.34003"
           width="153.74001"
           height="1"
           transform="rotate(-24.31,539.60801,854.8433)"
           opacity="0.1"
           id="rect1047" />
        <rect
           x="608.51001"
           y="672.45001"
           width="168.14999"
           height="1"
           transform="rotate(-23.61,544.42609,863.15762)"
           opacity="0.1"
           id="rect1049" />
        <rect
           x="609.63"
           y="673.07001"
           width="201.22"
           height="1"
           transform="rotate(-23.36,560.93904,866.11124)"
           opacity="0.1"
           id="rect1051" />
        <polygon
           points="427.53,480.76 534.75,501.26 390.53,547.76 251.53,517.76 "
           fill="#ffffff"
           opacity="0.45"
           id="polygon1053" />
        <path
           d="m 829.51,563.51 c 0,0 9.09,3.67 3.76,9.33 -5.33,5.66 -209.94,64.89 -209.94,64.89 z"
           transform="translate(-88.58,-43.42)"
           fill="#3a3768"
           id="path1055" />
        <path
           d="m 828,464.15 c 0,0 -22.67,49.67 -4.67,91.5 l -181,56.5 -17.33,3.67 -8,-35 5.35,-44.17 v -24.17 z"
           transform="translate(-88.58,-43.42)"
           fill="#d5d6db"
           id="path1057" />
        <polygon
           points="418.41,357.18 750.37,410.06 544.18,484.29 167.89,402.85 "
           fill="#6c63ff"
           id="polygon1059" />
        <path
           d="m 256.47,446.26 c 0,0 -23.47,44.39 3.53,85.39 l 371.5,80.5 c 0,0 -23.06,-35.39 1.22,-84.44 z"
           transform="translate(-88.58,-43.42)"
           fill="#6c63ff"
           id="path1061" />
        <path
           d="m 256.47,446.26 c 0,0 -23.47,44.39 3.53,85.39 l 371.5,80.5 c 0,0 -23.06,-35.39 1.22,-84.44 z"
           transform="translate(-88.58,-43.42)"
           opacity="0.1"
           id="path1063" />
        <path
           d="m 267.54,461.65 c 0,0 -13.39,32.48 0,53.5"
           transform="translate(-88.58,-43.42)"
           opacity="0.1"
           id="path1065" />
        <path
           d="m 631.54,612.15 207.4,-66.5 c 0,0 11.6,2.5 4.1,11 -7.5,8.5 -207.5,64 -207.5,64 l -375.5,-89 z"
           transform="translate(-88.58,-43.42)"
           fill="#6c63ff"
           id="path1067" />
        <path
           d="m 631.54,612.15 207.4,-66.5 c 0,0 11.6,2.5 4.1,11 -7.5,8.5 -207.5,64 -207.5,64 l -375.5,-89 z"
           transform="translate(-88.58,-43.42)"
           opacity="0.1"
           id="path1069" />
        <path
           d="m 614.54,536.65 c 0,0 -20,24 0,60"
           transform="translate(-88.58,-43.42)"
           opacity="0.1"
           id="path1071" />
        <rect
           x="617.95001"
           y="562.42999"
           width="168.14999"
           height="1"
           transform="rotate(-23.61,553.86578,753.12305)"
           opacity="0.1"
           id="rect1081" />
        <rect
           x="619.07001"
           y="563.04999"
           width="201.22"
           height="1"
           transform="rotate(-23.36,570.3927,756.08774)"
           opacity="0.1"
           id="rect1083" />
        <polygon
           points="436.96,370.73 544.18,391.23 399.96,437.73 260.96,407.73 "
           fill="#ffffff"
           opacity="0.3"
           id="polygon1085" />
        <path
           d="m 463,314.62 c 0,0 -16.56,-34.33 -37.64,-17.41 0,0 -4.55,1.52 -4.33,6.29 0,0 1.75,-0.91 3,2.77 a 17.72,17.72 0 0 0 1.84,3.7 8.63,8.63 0 0 0 4.29,3.4 v 0 c 0,0 9.07,7.18 26.36,2.28 0,0 4.83,0.83 5.62,0.25 l -5.52,-4.27 c 0,0 -3,4.17 -7.18,4.54 0,0 7.16,-4.23 6.39,-5.21 -0.16,-0.2 -3,-2.13 -3,-2.13 0,0 -5.21,7.23 -11.71,7.6 0,0 9.2,-3.9 10.62,-8.35 l -4.5,-2.66 c 0,0 -5.13,7.92 -12.52,8.62 0,0 9.48,-4.41 11.49,-9.13 l -4.78,-2 c 0,0 -5.15,7.62 -11.31,8.17 0,0 10.44,-6.21 10.18,-8.56 0,0 -4.51,-1.58 -5.91,-1.43 0,0 -3.82,5.39 -7.42,5.39 0,0 6.53,-4.89 6.13,-5.68 0,0 -6.42,-0.5 -9.8,1 a 19.47,19.47 0 0 1 9.83,-2 10.77,10.77 0 0 0 -5.14,-3.39 c 0,0 3.58,-1.36 6.69,3.53 0,0 5,0.59 5.59,1.16 0,0 -2.39,-5.26 -5.44,-7.55 0,0 4.62,0.93 6.73,8 l 4.85,1.92 c 0,0 -2.79,-7.12 -5.36,-9.37 0,0 4.56,1.69 6.55,10 l 4.44,2.56 c 0,0 -1.93,-6.33 -4.25,-9.44 0,0 3.89,2.48 5.5,10.22 l 2.77,2.06 c 0,0 -1.5,-4.59 -2,-5.87 -0.5,-1.28 -0.25,-1.54 -0.25,-1.54 a 16.41,16.41 0 0 1 3.48,8.25 c 0,0 5.35,4.58 5.71,4.28 z"
           transform="translate(-88.58,-43.42)"
           fill="#6c63ff"
           opacity="0.1"
           id="path1093" />
        <ellipse
           cx="201.95"
           cy="781.59003"
           rx="22.99"
           ry="2.5699999"
           fill="#6c63ff"
           opacity="0.1"
           id="ellipse1099" />
        <ellipse
           cx="51.240002"
           cy="737.90997"
           rx="22.99"
           ry="2.5699999"
           fill="#6c63ff"
           opacity="0.1"
           id="ellipse1101" />
        <ellipse
           cx="316.82999"
           cy="810.59998"
           rx="22.99"
           ry="2.5699999"
           fill="#6c63ff"
           opacity="0.1"
           id="ellipse1103" />
        <ellipse
           cx="714.21997"
           cy="734.94"
           rx="22.99"
           ry="2.5699999"
           fill="#6c63ff"
           opacity="0.1"
           id="ellipse1107" />
        <ellipse
           cx="590.46002"
           cy="793.65997"
           rx="27.190001"
           ry="4.6700001"
           fill="#6c63ff"
           opacity="0.1"
           id="ellipse1109" />
      </g>
    </g>
  </g>
</svg>
